<?xml version="1.0" standalone="no"?>
<!DOCTYPE svg PUBLIC "-//W3C//DTD SVG 20010904//EN"
 "http://www.w3.org/TR/2001/REC-SVG-20010904/DTD/svg10.dtd">
<svg version="1.0" xmlns="http://www.w3.org/2000/svg"
 width="317.000000pt" height="317.000000pt" viewBox="0 0 317.000000 317.000000"
 preserveAspectRatio="xMidYMid meet">
<metadata>
Created by potrace 1.11, written by Peter Selinger 2001-2013
</metadata>
<g transform="translate(0.000000,317.000000) scale(0.100000,-0.100000)"
fill="#000000" stroke="none">
<path d="M0 1585 l0 -1585 1585 0 1585 0 0 1585 0 1585 -1585 0 -1585 0 0
-1585z m1755 972 c436 -96 675 -431 675 -947 0 -488 -208 -842 -566 -964 -136
-46 -190 -51 -524 -51 -360 0 -381 3 -446 69 -76 76 -74 48 -74 921 0 850 -1
839 62 911 68 78 109 84 493 80 230 -3 328 -8 380 -19z"/>
<path d="M1199 2308 c-43 -11 -71 -39 -89 -88 -17 -45 -27 -1017 -12 -1168 19
-185 33 -195 293 -200 214 -5 303 8 407 59 78 38 185 137 230 212 73 121 112
289 112 484 0 324 -109 547 -318 652 -95 48 -180 61 -391 60 -108 -1 -212 -5
-232 -11z"/>
</g>
</svg>
